<svg data-v-0dd9719b="" version="1.0" xmlns="http://www.w3.org/2000/svg" xmlns:xlink="http://www.w3.org/1999/xlink" width="100%" height="100%" viewBox="0 0 340.000000 250.000000" preserveAspectRatio="xMidYMid meet" color-interpolation-filters="sRGB" style="margin: auto;"> <rect data-v-0dd9719b="" x="0" y="0" width="100%" height="100%" fill="#ffffff" fill-opacity="1" class="background"></rect> <rect data-v-0dd9719b="" x="0" y="0" width="100%" height="100%" fill="url(#watermark)" fill-opacity="1" class="watermarklayer"></rect> <g data-v-0dd9719b="" fill="#868f96" class="icon-text-wrapper icon-svg-group iconsvg" transform="translate(48.970001220703125,95.01708984375)"><g class="iconsvg-imagesvg" transform="translate(0,0)" mask="url(#5d6e3055-194f-48bf-969f-a93157999e08)"><g><rect fill="#868f96" fill-opacity="0" stroke-width="2" x="0" y="0" width="60" height="59.96581948289475" class="image-rect"></rect> <svg filter="url(#colors1907647988)" x="0" y="0" width="60" height="59.96581948289475" filtersec="colorsf8298010177" class="image-svg-svg primary" style="overflow: visible;"><svg xmlns="http://www.w3.org/2000/svg" viewBox="0.002373877912759781 0.001249883440323174 112.60513305664062 112.54124450683594"><title>资源 17</title><path d="M22.67 31.35h7.76c.76 0 .94-.25.94-1V15.97a1.42 1.42 0 0 1 .8-1.4Q44.2 7.49 56.22.31a1.54 1.54 0 0 1 1.85 0q11.06 6.61 22.15 13.15a1.67 1.67 0 0 1 1 1.7v15.13c0 .88.28 1.09 1.12 1.08h15.22a1.57 1.57 0 0 1 1.54.9q6.6 11.18 13.24 22.32a1.33 1.33 0 0 1 0 1.6Q105 68.29 97.83 80.47a1.27 1.27 0 0 1-1.27.7H82.17c-.84 0-1 .26-1 1.07v15.32a1.49 1.49 0 0 1-.85 1.44Q69.15 105.6 58 112.25a1.47 1.47 0 0 1-1.76 0Q44.18 105 32.08 97.86a1.33 1.33 0 0 1-.74-1.34V82.23c0-.89-.27-1.09-1.11-1.09h-14.2a1.48 1.48 0 0 1-1.46-.85Q7.48 68.27.29 56.25a1.49 1.49 0 0 1 0-1.76q6.6-11.07 13.14-22.16a1.74 1.74 0 0 1 1.77-1c2.49.06 4.98.02 7.47.02zM89.4 47.84A7.74 7.74 0 0 0 89 47c-2.79-4.71-5.57-9.43-8.39-14.13a3.17 3.17 0 0 0-1-1q-7-4.17-14-8.29c-.27-.16-.57-.28-.94-.46 0 .41-.06.66-.06.9v22.89c0 .86.32 1 1.09 1h22.7c.28-.01.6-.04 1-.07zm-.94 16.77H65.79c-1 0-1.21.27-1.21 1.21v23.59a6.48 6.48 0 0 0 .77-.32q6.39-3.78 12.76-7.58a2.28 2.28 0 0 0 .74-.8c2.64-4.4 5.25-8.82 7.87-13.23.6-.9 1.1-1.77 1.74-2.87zM23.08 47.85h23.63c.94 0 1.22-.24 1.21-1.2V25.18v-1.14c-.44.24-.74.38-1 .55-5 3-10 5.93-15 8.92a2.64 2.64 0 0 0-.89.9q-3.72 6.21-7.39 12.43c-.24.33-.36.61-.56 1.01zM47.9 88.47v-1.18V65.8c0-.93-.24-1.22-1.2-1.21H25.22c-.33 0-.65 0-1.08.06.16.35.24.58.36.79 2.7 4.55 5.39 9.1 8.11 13.64a2.59 2.59 0 0 0 .85.83q5.81 3.48 11.64 6.92c.9.52 1.72 1.01 2.8 1.64z" fill="#000000"></path></svg></svg> <defs><filter id="colors1907647988"><feColorMatrix type="matrix" values="0 0 0 0 0.5234375  0 0 0 0 0.55859375  0 0 0 0 0.5859375  0 0 0 1 0" class="icon-fecolormatrix"></feColorMatrix></filter> <filter id="colorsf8298010177"><feColorMatrix type="matrix" values="0 0 0 0 0.99609375  0 0 0 0 0.99609375  0 0 0 0 0.99609375  0 0 0 1 0" class="icon-fecolormatrix"></feColorMatrix></filter> <filter id="colorsb2691493781"><feColorMatrix type="matrix" values="0 0 0 0 0  0 0 0 0 0  0 0 0 0 0  0 0 0 1 0" class="icon-fecolormatrix"></feColorMatrix></filter></defs></g><rect v-gra="id" width="72" height="71.9658203125" transform="translate(-6, -6)" style="pointer-events:none;" fill="url(#Vm8yJLWAJBiKfsJIp_jeZ)"></rect></g> <g transform="translate(67,6.146659851074219)"><g data-gra="path-name" fill-rule="" class="tp-name iconsvg-namesvg" transform="translate(0,0)" fill="url(#f9e48447-41fc-4c87-a8df-203e214b2cdd)"><g transform="scale(1)"><g><path d="M31.86-5.15L34.2-5.15 33.88-1.51Q33.66 0.72 32.51 1.96 31.36 3.2 29.66 3.2L29.66 3.2Q27.97 3.2 26.3 1.87 24.62 0.54 23.29-2.05L23.29-2.05Q20.16 0.79 15.73 2.7L15.73 2.7 15.73 0.36Q17.1-0.32 18.74-1.78 20.38-3.24 21.92-5.18L21.92-5.18Q20.66-8.89 20.09-13.57L20.09-13.57 19.22-20.81 8.5-20.81 8.5-15.73 16.88-15.73 16.88-4.61Q16.88-0.83 13.1-0.83L13.1-0.83 7.67-0.83 7.67-3.17 11.66-3.17Q12.92-3.17 12.92-4.43L12.92-4.43 12.92-13.39 8.46-13.39Q8.24-6.08 6.46-2.12 4.68 1.84 1.66 3.67L1.66 3.67 1.66 0.97Q3.1-1.12 3.82-5.31 4.54-9.5 4.54-15.19L4.54-15.19 4.54-23.15 18.94-23.15 18.25-28.98 22.21-28.98 22.82-23.15 33.59-23.15 33.59-21.35Q33.59-21.13 33.43-20.97 33.26-20.81 33.05-20.81L33.05-20.81 23.04-20.81 23.47-16.63Q23.87-12.82 24.8-9.25L24.8-9.25Q27.54-14 28.04-18L28.04-18 32-18Q29.77-9.9 26.06-5.11L26.06-5.11Q27.04-2.45 28.04-0.83 29.05 0.79 29.7 0.83L29.7 0.83Q30.31 0.86 30.6 0.41 30.89-0.04 30.96-0.97L30.96-0.97 31.32-4.61Q31.36-4.82 31.5-4.99 31.64-5.15 31.86-5.15L31.86-5.15ZM27.94-23.33Q27.47-24.08 26.21-25.56 24.95-27.04 23.4-28.51L23.4-28.51 27.36-28.51Q29.38-26.39 30.89-23.33L30.89-23.33 27.94-23.33ZM53.24-26.35L57.2-26.35Q56.27-23.9 55.26-21.89 54.25-19.87 52.74-17.86L52.74-17.86 56.84-17.86 56.84-16.06Q56.84-15.84 56.68-15.68 56.52-15.52 56.3-15.52L56.3-15.52 50.76-15.52Q48.6-13.28 46.4-11.74L46.4-11.74 55.3-11.74 55.3-0.61Q55.3 3.17 51.52 3.17L51.52 3.17 41.33 3.17 41.33-8.6Q39.53-7.67 37.66-6.84L37.66-6.84 37.66-9.18Q43.24-12.17 46.69-15.52L46.69-15.52 38.27-15.52 38.27-17.86 43.92-17.86 43.92-22.18 39.02-22.18 39.02-24.52 43.92-24.52 43.92-28.98 47.88-28.98 47.88-24.52 51.77-24.52 51.77-22.72Q51.77-22.5 51.61-22.34 51.44-22.18 51.23-22.18L51.23-22.18 47.88-22.18 47.88-17.86 48.82-17.86Q50.4-19.84 51.41-21.85 52.42-23.87 53.24-26.35L53.24-26.35ZM66.67-14.65Q67.39-14 68.26-12.78 69.12-11.56 69.73-10.01 70.34-8.46 70.34-6.98L70.34-6.98Q70.34-4.36 68.89-2.74 67.43-1.12 63.58-1.12L63.58-1.12Q62.46-1.12 61.81-1.19L61.81-1.19 61.81-3.53Q64.58-3.38 65.56-4.45 66.53-5.51 66.53-7.16L66.53-7.16Q66.53-9.29 65.74-11.25 64.94-13.21 63.83-14.44L63.83-14.44Q64.62-15.52 65.18-18.49 65.74-21.46 65.74-24.26L65.74-24.26 61.34-24.26 61.34 3.2Q61.34 3.42 61.18 3.58 61.02 3.74 60.8 3.74L60.8 3.74 57.38 3.74 57.38-26.6 69.88-26.6 69.88-24.26Q69.84-22.36 68.8-19.53 67.75-16.7 66.67-14.65L66.67-14.65ZM51.34-5.47L51.34-9.4 45.29-9.4 45.29-5.47 51.34-5.47ZM50.08 0.83Q51.34 0.83 51.34-0.43L51.34-0.43 51.34-3.13 45.29-3.13 45.29 0.83 50.08 0.83ZM85.36-20.59L85.36-8.82Q85.36-4.72 82.48-1.58L82.48-1.58Q83.12-1.08 83.88-0.7 84.64-0.32 85.28-0.04L85.28-0.04 85.28 2.3Q82.37 1.48 80.39 0.29L80.39 0.29Q77.54 2.41 73.66 3.53L73.66 3.53 73.66 1.19Q74.84 0.65 75.91 0.02 76.97-0.61 78.01-1.58L78.01-1.58Q75.24-4.43 75.24-8.82L75.24-8.82 75.24-20.59 73.66-20.59 73.66-22.93 75.24-22.93 75.24-28.44 78.84-28.44 78.84-22.93 81.76-22.93 81.76-28.44 85.36-28.44 85.36-22.93 86.98-22.93 86.98-21.13Q86.98-20.92 86.81-20.75 86.65-20.59 86.44-20.59L86.44-20.59 85.36-20.59ZM105.16-16.31L105.16-1.33Q105.16 2.45 101.38 2.45L101.38 2.45 94.07 2.45 94.07 0.11 100.12 0.11Q101.38 0.11 101.38-1.15L101.38-1.15 101.38-13.97 96.19-13.97 96.19-16.31 97.02-16.31Q98.39-18.79 99.32-20.9 100.26-23 100.48-25.24L100.48-25.24 93.78-25.24 93.78-17.5Q93.78-10.4 92.84-6.12 91.91-1.84 90.2 0.38 88.49 2.59 85.9 3.74L85.9 3.74 85.9 1.4Q87.26 0.22 88.11-1.89 88.96-4 89.39-7.99 89.82-11.99 89.82-18.61L89.82-18.61 89.82-25.24 86.47-25.24 86.47-27.58 104.44-27.58 104.44-25.24Q104.22-23.47 102.91-21.02 101.59-18.58 100.01-16.31L100.01-16.31 105.16-16.31ZM81.76-20.59L78.84-20.59 78.84-9.94Q78.84-6.44 80.17-4.14L80.17-4.14Q81.76-6.7 81.76-9.94L81.76-9.94 81.76-20.59ZM128.7-12.38L140.72-12.38 140.72-10.04Q137.95-5.4 131.09-1.64 124.24 2.12 111.6 3.74L111.6 3.74 111.6 1.4Q121.57-0.5 127.08-2.99L127.08-2.99 124.38-2.95Q123.37-4.68 120.67-6.66L120.67-6.66Q118.44-5.54 116.19-4.73 113.94-3.92 112.14-3.49L112.14-3.49 112.14-6.19Q115.49-7.2 119.16-9.23 122.83-11.27 125.42-14.33L125.42-14.33Q119.02-12.13 110.81-11.05L110.81-11.05 110.81-13.39Q118.94-14.62 124.99-17.1L124.99-17.1 122.36-17.06Q121.43-18.4 118.8-20.34L118.8-20.34Q115.16-18.58 111.78-17.82L111.78-17.82 111.78-20.52Q115.09-21.53 118.76-23.81 122.44-26.1 124.27-28.98L124.27-28.98 128.59-28.98Q127.98-27.4 126.76-25.99L126.76-25.99 139.64-25.99 139.64-23.65Q138.74-21.82 135.83-19.57 132.91-17.32 128.2-15.37L128.2-15.37 130.57-15.37Q130.1-14.04 128.7-12.38L128.7-12.38ZM123.16-20.99Q124.45-19.55 125.78-17.42L125.78-17.42Q128.88-18.76 131.08-20.36 133.27-21.96 134.42-23.65L134.42-23.65 124.27-23.65Q122.47-22.25 120.1-20.99L120.1-20.99 123.16-20.99ZM127.84-3.31Q133.42-6.01 135.58-10.04L135.58-10.04 126.14-10.04Q124.74-8.96 122.47-7.63L122.47-7.63 124.56-7.63Q126-6.05 126.49-5.42 126.97-4.79 127.84-3.31L127.84-3.31ZM164.7-12.38L176.72-12.38 176.72-10.04Q173.95-5.4 167.09-1.64 160.24 2.12 147.6 3.74L147.6 3.74 147.6 1.4Q157.57-0.5 163.08-2.99L163.08-2.99 160.38-2.95Q159.37-4.68 156.67-6.66L156.67-6.66Q154.44-5.54 152.19-4.73 149.94-3.92 148.14-3.49L148.14-3.49 148.14-6.19Q151.49-7.2 155.16-9.23 158.83-11.27 161.42-14.33L161.42-14.33Q155.02-12.13 146.81-11.05L146.81-11.05 146.81-13.39Q154.94-14.62 160.99-17.1L160.99-17.1 158.36-17.06Q157.43-18.4 154.8-20.34L154.8-20.34Q151.16-18.58 147.78-17.82L147.78-17.82 147.78-20.52Q151.09-21.53 154.76-23.81 158.44-26.1 160.27-28.98L160.27-28.98 164.59-28.98Q163.98-27.4 162.76-25.99L162.76-25.99 175.64-25.99 175.64-23.65Q174.74-21.82 171.83-19.57 168.91-17.32 164.2-15.37L164.2-15.37 166.57-15.37Q166.1-14.04 164.7-12.38L164.7-12.38ZM159.16-20.99Q160.45-19.55 161.78-17.42L161.78-17.42Q164.88-18.76 167.08-20.36 169.27-21.96 170.42-23.65L170.42-23.65 160.27-23.65Q158.47-22.25 156.1-20.99L156.1-20.99 159.16-20.99ZM163.84-3.31Q169.42-6.01 171.58-10.04L171.58-10.04 162.14-10.04Q160.74-8.96 158.47-7.63L158.47-7.63 160.56-7.63Q162-6.05 162.49-5.42 162.97-4.79 163.84-3.31L163.84-3.31Z" transform="translate(-1.6600000858306885, 28.979999542236328)"></path></g> <!----> <!----> <!----> <!----> <!----> <!----> <!----></g></g> <g data-gra="path-slogan" fill-rule="" class="tp-slogan iconsvg-slogansvg" fill="#29353a" transform="translate(19.610000610351562,38.720001220703125)"><!----> <!----> <g transform="scale(1, 1)"><g transform="scale(1)"><path d="M8.06-6.05L8.06-6.05L6.94-6.05Q6.52-7.78 4.55-7.83L4.55-7.83Q1.83-7.69 1.73-4.36L1.73-4.36Q1.73-0.80 4.59-0.80L4.59-0.80Q6.56-0.84 7.03-3.19L7.03-3.19L8.16-3.19Q7.64 0.05 4.36 0.14L4.36 0.14Q0.61 0 0.52-4.31L0.52-4.31Q0.70-8.63 4.55-8.81L4.55-8.81Q7.59-8.72 8.06-6.05ZM10.69-5.06L15.19-5.06L15.19-8.58L16.36-8.58L16.36 0L15.19 0L15.19-3.98L10.69-3.98L10.69 0L9.52 0L9.52-8.58L10.69-8.58L10.69-5.06ZM19.45-1.03L24.61-1.03L24.61 0L18.28 0L18.28-8.58L24.52-8.58L24.52-7.59L19.45-7.59L19.45-4.92L24.14-4.92L24.14-3.89L19.45-3.89L19.45-1.03ZM27.52-8.58L31.83-1.64L31.83-8.58L32.95-8.58L32.95 0L31.64 0L27.28-6.94L27.23-6.94L27.23 0L26.11 0L26.11-8.58L27.52-8.58ZM41.16-3.61L38.53-3.61L38.53-4.59L42.28-4.59L42.28 0L41.53 0L41.25-1.08Q40.27 0.09 38.44 0.14L38.44 0.14Q36.70 0.14 35.77-0.75L35.77-0.75Q34.36-2.06 34.41-4.36L34.41-4.36Q34.73-8.63 38.48-8.81L38.48-8.81Q41.67-8.63 42.14-6L42.14-6L41.02-6Q40.55-7.78 38.44-7.83L38.44-7.83Q35.77-7.64 35.63-4.31L35.63-4.31Q35.63-0.75 38.48-0.75L38.48-0.75Q39.52-0.75 40.27-1.31L40.27-1.31Q41.20-2.06 41.16-3.61L41.16-3.61ZM47.58 0L44.11 0L44.11-8.58L47.63-8.58Q51.09-8.39 51.23-4.41L51.23-4.41Q51.05-0.09 47.58 0L47.58 0ZM47.44-7.64L45.28-7.64L45.28-0.98L47.53-0.98Q49.97-1.13 50.06-4.31L50.06-4.31Q50.02-7.55 47.44-7.64L47.44-7.64ZM58.36-3.19L58.36-8.58L59.53-8.58L59.53-3.05Q59.39 0.05 56.02 0.14L56.02 0.14Q52.88 0.05 52.73-2.86L52.73-2.86L52.73-8.58L53.91-8.58L53.91-3.19Q53.95-0.84 56.06-0.80L56.06-0.80Q58.36-0.84 58.36-3.19L58.36-3.19ZM66.05-8.58L70.36-1.64L70.36-8.58L71.48-8.58L71.48 0L70.17 0L65.81-6.94L65.77-6.94L65.77 0L64.64 0L64.64-8.58L66.05-8.58ZM78.94 0L78.09-2.48L74.63-2.48L73.73 0L72.56 0L75.80-8.58L77.11-8.58L80.20 0L78.94 0ZM76.36-7.31L75-3.52L77.67-3.52L76.41-7.31L76.36-7.31ZM81.42-8.58L82.59-8.58L82.59 0L81.42 0L81.42-8.58ZM88.08 0L84.61 0L84.61-8.58L88.13-8.58Q91.59-8.39 91.73-4.41L91.73-4.41Q91.55-0.09 88.08 0L88.08 0ZM87.94-7.64L85.78-7.64L85.78-0.98L88.03-0.98Q90.47-1.13 90.56-4.31L90.56-4.31Q90.52-7.55 87.94-7.64L87.94-7.64ZM98.86-3.19L98.86-8.58L100.03-8.58L100.03-3.05Q99.89 0.05 96.52 0.14L96.52 0.14Q93.38 0.05 93.23-2.86L93.23-2.86L93.23-8.58L94.41-8.58L94.41-3.19Q94.45-0.84 96.56-0.80L96.56-0.80Q98.86-0.84 98.86-3.19L98.86-3.19ZM108.61-4.27L108.61-4.27Q108.42-7.64 105.61-7.83L105.61-7.83Q102.75-7.69 102.61-4.27L102.61-4.27Q102.75-0.94 105.61-0.80L105.61-0.80Q108.42-0.98 108.61-4.27ZM109.78-4.27L109.78-4.27Q109.50 0 105.61 0.14L105.61 0.14Q101.67 0 101.39-4.27L101.39-4.27Q101.63-8.72 105.61-8.81L105.61-8.81Q109.50-8.67 109.78-4.27ZM114.66 0L111.19 0L111.19-8.58L114.70-8.58Q118.17-8.39 118.31-4.41L118.31-4.41Q118.13-0.09 114.66 0L114.66 0ZM114.52-7.64L112.36-7.64L112.36-0.98L114.61-0.98Q117.05-1.13 117.14-4.31L117.14-4.31Q117.09-7.55 114.52-7.64L114.52-7.64ZM125.44-3.19L125.44-8.58L126.61-8.58L126.61-3.05Q126.47 0.05 123.09 0.14L123.09 0.14Q119.95 0.05 119.81-2.86L119.81-2.86L119.81-8.58L120.98-8.58L120.98-3.19Q121.03-0.84 123.14-0.80L123.14-0.80Q125.44-0.84 125.44-3.19L125.44-3.19ZM135.19-4.27L135.19-4.27Q135-7.64 132.19-7.83L132.19-7.83Q129.33-7.69 129.19-4.27L129.19-4.27Q129.33-0.94 132.19-0.80L132.19-0.80Q135-0.98 135.19-4.27ZM136.36-4.27L136.36-4.27Q136.08 0 132.19 0.14L132.19 0.14Q128.25 0 127.97-4.27L127.97-4.27Q128.20-8.72 132.19-8.81L132.19-8.81Q136.08-8.67 136.36-4.27Z" transform="translate(-0.515625, 8.8125)"></path></g></g></g></g></g><defs v-gra="od"><linearGradient x1="0" y1="1" x2="0" y2="0" id="f9e48447-41fc-4c87-a8df-203e214b2cdd"><stop offset="0%" stop-color="#868f96"></stop><stop offset="100%" stop-color="#596164"></stop></linearGradient><filter id="42443b3f1de60f6b6fd3b6a9844b4764" filterUnits="objectBoundingBox"><feColorMatrix type="matrix" values="0 0 0 0 0.99609375  0 0 0 0 0.99609375  0 0 0 0 0.99609375  0 0 0 1 0"></feColorMatrix></filter></defs><defs v-gra="id"><filter id="4c0d7dfb-16ac-4470-8c1b-0cb860cd985e" filterUnits="userSpaceOnUse"><feColorMatrix type="matrix" values="0 0 0 0 0.99609375  0 0 0 0 0.99609375  0 0 0 0 0.99609375  0 0 0 1 0"></feColorMatrix></filter><linearGradient x1="0" y1="1" x2="0" y2="0" id="Vm8yJLWAJBiKfsJIp_jeZ"><stop offset="0%" stop-color="#868f96"></stop><stop offset="100%" stop-color="#596164"></stop></linearGradient><filter id="42443b3f1de60f6b6fd3b6a9844b4764" filterUnits="objectBoundingBox"><feColorMatrix type="matrix" values="0 0 0 0 0.99609375  0 0 0 0 0.99609375  0 0 0 0 0.99609375  0 0 0 1 0"></feColorMatrix></filter></defs><mask v-gra="im" id="5d6e3055-194f-48bf-969f-a93157999e08"><g class="iconsvg-imagesvg" filter="url(#4c0d7dfb-16ac-4470-8c1b-0cb860cd985e)"><g><rect fill="#868f96" fill-opacity="0" stroke-width="2" x="0" y="0" width="60" height="59.96581948289475" class="image-rect"></rect> <svg x="0" y="0" width="60" height="59.96581948289475" filtersec="colorsf8298010177" class="image-svg-svg primary" style="overflow: visible;"><svg xmlns="http://www.w3.org/2000/svg" viewBox="0.002373877912759781 0.001249883440323174 112.60513305664062 112.54124450683594"><title>资源 17</title><path d="M22.67 31.35h7.76c.76 0 .94-.25.94-1V15.97a1.42 1.42 0 0 1 .8-1.4Q44.2 7.49 56.22.31a1.54 1.54 0 0 1 1.85 0q11.06 6.61 22.15 13.15a1.67 1.67 0 0 1 1 1.7v15.13c0 .88.28 1.09 1.12 1.08h15.22a1.57 1.57 0 0 1 1.54.9q6.6 11.18 13.24 22.32a1.33 1.33 0 0 1 0 1.6Q105 68.29 97.83 80.47a1.27 1.27 0 0 1-1.27.7H82.17c-.84 0-1 .26-1 1.07v15.32a1.49 1.49 0 0 1-.85 1.44Q69.15 105.6 58 112.25a1.47 1.47 0 0 1-1.76 0Q44.18 105 32.08 97.86a1.33 1.33 0 0 1-.74-1.34V82.23c0-.89-.27-1.09-1.11-1.09h-14.2a1.48 1.48 0 0 1-1.46-.85Q7.48 68.27.29 56.25a1.49 1.49 0 0 1 0-1.76q6.6-11.07 13.14-22.16a1.74 1.74 0 0 1 1.77-1c2.49.06 4.98.02 7.47.02zM89.4 47.84A7.74 7.74 0 0 0 89 47c-2.79-4.71-5.57-9.43-8.39-14.13a3.17 3.17 0 0 0-1-1q-7-4.17-14-8.29c-.27-.16-.57-.28-.94-.46 0 .41-.06.66-.06.9v22.89c0 .86.32 1 1.09 1h22.7c.28-.01.6-.04 1-.07zm-.94 16.77H65.79c-1 0-1.21.27-1.21 1.21v23.59a6.48 6.48 0 0 0 .77-.32q6.39-3.78 12.76-7.58a2.28 2.28 0 0 0 .74-.8c2.64-4.4 5.25-8.82 7.87-13.23.6-.9 1.1-1.77 1.74-2.87zM23.08 47.85h23.63c.94 0 1.22-.24 1.21-1.2V25.18v-1.14c-.44.24-.74.38-1 .55-5 3-10 5.93-15 8.92a2.64 2.64 0 0 0-.89.9q-3.72 6.21-7.39 12.43c-.24.33-.36.61-.56 1.01zM47.9 88.47v-1.18V65.8c0-.93-.24-1.22-1.2-1.21H25.22c-.33 0-.65 0-1.08.06.16.35.24.58.36.79 2.7 4.55 5.39 9.1 8.11 13.64a2.59 2.59 0 0 0 .85.83q5.81 3.48 11.64 6.92c.9.52 1.72 1.01 2.8 1.64z" fill="#000000"></path></svg></svg> <defs><filter id="colors1907647988"><feColorMatrix type="matrix" values="0 0 0 0 0.5234375  0 0 0 0 0.55859375  0 0 0 0 0.5859375  0 0 0 1 0" class="icon-fecolormatrix"></feColorMatrix></filter> <filter id="colorsf8298010177"><feColorMatrix type="matrix" values="0 0 0 0 0.99609375  0 0 0 0 0.99609375  0 0 0 0 0.99609375  0 0 0 1 0" class="icon-fecolormatrix"></feColorMatrix></filter> <filter id="colorsb2691493781"><feColorMatrix type="matrix" values="0 0 0 0 0  0 0 0 0 0  0 0 0 0 0  0 0 0 1 0" class="icon-fecolormatrix"></feColorMatrix></filter></defs></g></g></mask></svg>